<svg width="346" height="211" viewBox="0 0 346 211" fill="none" xmlns="http://www.w3.org/2000/svg">
<path d="M251.947 176.027C253.997 176.026 255.981 175.203 257.549 173.702C259.117 172.201 260.168 170.119 260.516 167.824C262.21 156.719 260.742 135.884 234.571 115.067C209.339 94.9962 220.719 37.2092 167.107 41.1965C113.494 45.1838 118.606 87.8899 85.7318 107.464C62.3266 121.4 60.3401 150.247 61.1376 165.708C61.2791 168.498 62.3538 171.12 64.1417 173.038C65.9296 174.957 68.2954 176.026 70.7546 176.027H251.947Z" fill="#F3F5FD"/>
<path d="M20.6735 205.44H69.2367C72.7995 202.597 73.0452 196.191 69.3525 193.332C66.5064 191.127 62.2038 191.717 59.5291 194.01C60.0294 192.303 60.0399 190.49 59.5593 188.777C58.6891 185.694 56.7559 182.56 53.8037 181.313C46.27 178.134 40.9167 184.795 39.844 188.519C37.9152 185.682 33.6002 184.183 30.892 186.093C27.461 188.511 27.6161 192.324 30.3531 195.06C26.7066 194.381 23.9603 194.905 21.431 197.62C19.5038 199.686 19.2091 203.208 20.6735 205.44Z" fill="#DEE8F5"/>
<path d="M124.806 31.132H198.979C204.66 31.132 209.264 35.7366 209.264 41.4166V192.763C209.264 198.443 204.66 203.048 198.979 203.048H124.806C119.126 203.048 114.521 198.443 114.521 192.763V41.4166C114.521 35.7366 119.126 31.132 124.806 31.132Z" fill="white"/>
<path d="M124.806 205.715H198.98C202.414 205.711 205.706 204.345 208.134 201.917C210.562 199.489 211.928 196.197 211.932 192.763V41.4166C211.927 37.9829 210.562 34.6909 208.134 32.2629C205.705 29.8349 202.414 28.4691 198.98 28.4651H124.806C121.372 28.4691 118.08 29.8349 115.652 32.2629C113.224 34.6909 111.858 37.9829 111.854 41.4166V192.763C111.858 196.197 113.224 199.489 115.652 201.917C118.08 204.345 121.372 205.711 124.806 205.715ZM198.98 33.7988C200.999 33.8014 202.935 34.6047 204.363 36.0326C205.791 37.4605 206.594 39.3964 206.597 41.4157V192.763C206.594 194.782 205.791 196.718 204.363 198.146C202.935 199.574 200.999 200.377 198.98 200.38H124.806C122.786 200.377 120.85 199.574 119.422 198.146C117.995 196.718 117.191 194.782 117.189 192.763V41.4166C117.191 39.3973 117.995 37.4614 119.423 36.0335C120.85 34.6056 122.786 33.8023 124.806 33.7997L198.98 33.7988Z" fill="#DEE8F5"/>
<path d="M178.133 31.1326H145.652V37.4344C145.652 38.6855 146.149 39.8854 147.033 40.77C147.918 41.6547 149.118 42.1517 150.369 42.1517H173.416C174.667 42.1517 175.867 41.6547 176.752 40.77C177.637 39.8854 178.134 38.6855 178.134 37.4344V31.1326H178.133Z" fill="#DEE8F5"/>
<path d="M243.309 88.9848C243.309 88.9848 246.465 86.142 246.641 85.1799C246.817 84.2179 244.364 82.5001 244.364 82.5001C244.364 82.5001 244.992 81.7832 245.601 80.9731C246.303 80.0385 246.978 78.9803 246.631 78.7576C246.296 78.5427 245.471 79.3379 244.649 80.2991C243.591 81.5353 242.541 83.0472 242.541 83.0472C242.541 83.0472 242.949 81.3754 242.307 81.3074C242.043 81.2796 241.854 81.5492 241.516 82.7344C241.132 84.0858 240.325 86.1333 240.325 86.1333L243.309 88.9848Z" fill="#E98862"/>
<path d="M236.991 104.745C237.646 104.745 238.287 104.549 238.831 104.183C239.375 103.817 239.797 103.297 240.044 102.689L245.968 88.1004L239.862 85.6219L238.069 90.0388L236.661 83.0028L230.198 84.2955L233.76 102.097C233.899 102.792 234.259 103.423 234.785 103.898C235.311 104.372 235.976 104.664 236.682 104.731C236.784 104.74 236.888 104.745 236.991 104.745Z" fill="#367CFF"/>
<path d="M247.685 92.9168L244.021 92.3323C243.877 92.3093 243.74 92.2561 243.617 92.1762C243.495 92.0963 243.391 91.9915 243.313 91.8686C243.234 91.7458 243.182 91.6076 243.16 91.4633C243.138 91.319 243.147 91.1717 243.187 91.0311L245.492 82.7583C245.56 82.5131 245.716 82.3017 245.93 82.1643C246.145 82.0269 246.402 81.9731 246.653 82.0132L250.317 82.5978C250.461 82.6208 250.599 82.674 250.721 82.7539C250.843 82.8338 250.947 82.9386 251.026 83.0614C251.104 83.1843 251.156 83.3224 251.178 83.4667C251.2 83.6111 251.191 83.7584 251.152 83.899L248.846 92.1724C248.778 92.4174 248.622 92.6287 248.408 92.766C248.193 92.9032 247.936 92.9569 247.685 92.9168Z" fill="#C1D8ED"/>
<path d="M214.488 167.306C219.982 165.918 220.522 165.711 220.7 165.643L218.431 159.716C218.449 159.709 218.472 159.7 218.5 159.69C218.053 159.838 215.263 160.564 212.933 161.152L214.488 167.306Z" fill="#E98862"/>
<path d="M214.735 175.596C214.79 175.758 214.877 175.906 214.993 176.032C215.108 176.159 215.247 176.26 215.403 176.329C215.559 176.399 215.728 176.436 215.898 176.437C216.069 176.439 216.238 176.405 216.395 176.339C216.613 176.246 216.8 176.093 216.934 175.898C217.068 175.703 217.143 175.474 217.151 175.237L217.147 167.446C217.146 167.295 217.113 167.147 217.05 167.01C216.986 166.873 216.894 166.752 216.779 166.654C215.788 165.915 215.06 164.878 214.702 163.695C214.461 162.76 214.487 161.777 214.777 160.857C214.808 160.774 214.816 160.684 214.798 160.597C214.78 160.51 214.738 160.43 214.676 160.367C214.615 160.303 214.536 160.258 214.45 160.237C214.364 160.216 214.274 160.22 214.19 160.248L210.765 161.397C210.664 161.431 210.571 161.485 210.49 161.555C210.41 161.625 210.344 161.71 210.297 161.805C210.25 161.901 210.222 162.005 210.215 162.111C210.208 162.217 210.222 162.324 210.256 162.425L214.735 175.596Z" fill="#C1D8ED"/>
<path d="M229.528 202.801C229.528 202.801 229.55 196.227 229.55 195.645H223.202C223.202 196.226 223.181 202.78 223.181 202.78L229.528 202.801Z" fill="#E98862"/>
<path d="M212.897 111.784C216.97 107.711 235.892 113.203 235.892 113.203L235.909 113.321L236.297 113.103C241.11 122.778 247.924 137.254 252.641 147.115C253.001 147.793 253.218 148.538 253.278 149.303C253.338 150.069 253.241 150.838 252.992 151.564C252.742 152.291 252.346 152.958 251.828 153.524C251.31 154.091 250.681 154.545 249.981 154.859L229.382 164.024C230.44 175.642 231.654 187.251 232.665 198.851L221.568 200.236C219.551 186.397 217.477 172.574 215.625 158.718L215.323 158.038L215.522 157.949C214.386 149.413 213.337 140.863 212.441 132.288C212.268 130.544 212.117 128.648 212.042 126.804C212.042 126.805 210.705 113.975 212.897 111.784ZM239.666 147.208C235.695 140.589 231.024 132.788 226.979 126.167C227.186 134.861 227.702 143.549 228.379 152.23L239.666 147.208Z" fill="#262626"/>
<path d="M220.177 81.1215C220.177 81.1215 222.515 79.8823 221.993 73.5179L226.822 72.6223C226.822 72.6223 226.278 78.3287 228.722 80.1401L220.177 81.1215Z" fill="#E98862"/>
<g opacity="0.15">
<path d="M227.733 78.9474L223.721 75.8783L226.872 75.8456C226.963 76.9241 227.255 77.9761 227.733 78.9474Z" fill="black"/>
</g>
<path d="M219.253 71.05C219.587 72.9808 220.641 74.8095 222.344 75.4327C224.366 76.1733 225.864 76.2234 228.195 76.2234C231.377 76.2234 231.272 72.9055 231.361 69.562C231.451 66.2069 231.184 62.6046 229.926 61.4349C227.417 59.1002 220.051 60.5786 219.155 64.4837C218.691 66.5037 218.935 69.2119 219.253 71.05Z" fill="#E98862"/>
<path d="M222.218 75.2499C222.118 75.5712 222.048 75.7111 221.759 75.5391C220.623 74.8648 218.068 73.3967 217.198 67.8974C216.418 62.9706 219.457 60.9376 221.883 60.2125C223.972 59.5875 228.849 59.4587 231.138 60.8382C233.11 62.027 231.138 64.792 231.138 64.792C230.266 64.8322 230.09 65.5815 228.034 65.5815C226.444 65.5815 225.41 64.8709 223.922 64.9335C222.559 64.9909 222.279 65.8215 222.327 66.3541C222.619 69.5828 222.573 74.1137 222.218 75.2499Z" fill="#0F1011"/>
<path d="M226.815 69.5626C226.573 69.5626 226.377 69.3665 226.377 69.1246C226.377 68.8827 226.573 68.6866 226.815 68.6866C227.057 68.6866 227.253 68.8827 227.253 69.1246C227.253 69.3665 227.057 69.5626 226.815 69.5626Z" fill="#0F1011"/>
<path d="M230.27 69.2791C230.028 69.2791 229.832 69.083 229.832 68.8411C229.832 68.5992 230.028 68.4031 230.27 68.4031C230.512 68.4031 230.708 68.5992 230.708 68.8411C230.708 69.083 230.512 69.2791 230.27 69.2791Z" fill="#0F1011"/>
<path d="M231.029 67.9077C231.082 67.906 231.133 67.8837 231.17 67.8456C231.207 67.8075 231.228 67.7564 231.228 67.7032C231.229 67.6499 231.208 67.5986 231.172 67.5601C231.135 67.5215 231.085 67.4987 231.032 67.4963L229.871 67.4818C229.844 67.481 229.817 67.4857 229.792 67.4955C229.767 67.5054 229.744 67.5202 229.724 67.5392C229.705 67.5581 229.689 67.5808 229.679 67.6059C229.668 67.6309 229.663 67.6578 229.663 67.6849C229.663 67.712 229.668 67.7388 229.678 67.7639C229.688 67.789 229.703 67.8118 229.722 67.8312C229.74 67.8505 229.763 67.866 229.788 67.8766C229.813 67.8872 229.839 67.8929 229.866 67.8932L231.027 67.9077H231.029Z" fill="#0F1011"/>
<path d="M225.87 68.3306C225.886 68.3307 225.902 68.3289 225.918 68.3251L227.062 68.0501C227.114 68.0367 227.16 68.0032 227.187 67.9569C227.215 67.9105 227.224 67.855 227.211 67.8024C227.199 67.7498 227.166 67.7043 227.12 67.6757C227.074 67.6472 227.018 67.6379 226.966 67.6499L225.822 67.9249C225.773 67.9365 225.729 67.9657 225.7 68.0071C225.671 68.0485 225.659 68.0991 225.665 68.1492C225.671 68.1994 225.695 68.2456 225.733 68.2791C225.771 68.3125 225.819 68.3308 225.87 68.3306Z" fill="#0F1011"/>
<path d="M224.537 70.1961C224.569 70.6829 224.409 71.163 224.091 71.5327C223.773 71.9024 223.321 72.1319 222.835 72.1716C222.349 72.2114 221.867 72.0581 221.492 71.745C221.118 71.4318 220.882 70.984 220.836 70.4984C220.812 70.2546 220.837 70.0084 220.91 69.7745C220.983 69.5406 221.102 69.3238 221.26 69.137C221.419 68.9502 221.613 68.7972 221.832 68.6871C222.051 68.577 222.29 68.5121 222.534 68.4962C223.858 68.4542 224.453 69.1742 224.537 70.1961Z" fill="#E98862"/>
<g opacity="0.15">
<path d="M228.759 71.5538C228.774 71.5539 228.789 71.5516 228.804 71.5469L229.858 71.2232C229.878 71.2169 229.897 71.2063 229.913 71.1921C229.929 71.178 229.942 71.1605 229.951 71.141C229.96 71.1215 229.965 71.1003 229.965 71.0789C229.965 71.0575 229.96 71.0363 229.951 71.0167L229.258 69.4731C229.241 69.4371 229.211 69.409 229.174 69.3952C229.137 69.3813 229.095 69.3826 229.059 69.3989C229.023 69.4152 228.995 69.4452 228.98 69.4823C228.966 69.5193 228.967 69.5606 228.983 69.597L229.605 70.9847L228.715 71.2567C228.68 71.2674 228.65 71.29 228.631 71.3207C228.612 71.3513 228.604 71.3879 228.61 71.4237C228.615 71.4595 228.633 71.4922 228.661 71.5158C228.688 71.5394 228.723 71.5524 228.759 71.5523V71.5538Z" fill="black"/>
</g>
<path d="M227.018 72.5737C227.018 72.5737 228.634 72.7441 229.768 72.3482C229.768 72.3482 229.759 73.413 228.48 73.5179C227.201 73.6228 227.018 72.5737 227.018 72.5737Z" fill="white"/>
<path d="M241.785 90.7484L243.946 93.6803C243.946 93.6803 249.754 92.516 250.298 88.0417C250.361 87.5279 250.307 86.1012 249.669 86.2923C248.006 86.7907 245.938 89.3414 244.487 89.6806C244.818 89.0878 245.222 88.2509 244.961 88.0979C244.277 87.6953 242.434 90.1243 241.785 90.7484Z" fill="#E98862"/>
<path d="M212.574 81.5402C213.955 80.1588 216.34 79.2672 219.247 79.2642C219.465 80.9598 229.76 80.9659 229.839 79.3034C230.231 79.3095 230.537 79.3155 230.727 79.3246C237.715 79.6269 237.694 85.2576 237.007 91.4817L242.756 88.9461L245.416 94.9758L236.265 99.0116C236.26 99.1929 236.255 99.3743 236.253 99.5556C236.135 109.367 238.786 111.217 237.48 114.215C236.213 117.126 211.329 118.335 210.996 113.215C210.784 109.956 213.656 107.112 213.656 100.762C213.656 94.4112 207.813 86.3007 212.574 81.5402Z" fill="#367CFF"/>
<path d="M237.237 205.384C237.408 205.384 237.577 205.348 237.733 205.279C237.889 205.21 238.029 205.109 238.145 204.984C238.26 204.858 238.349 204.71 238.405 204.549C238.46 204.388 238.482 204.216 238.469 204.046C238.451 203.81 238.366 203.585 238.223 203.396C238.081 203.207 237.887 203.062 237.666 202.98L230.278 200.505C230.135 200.458 229.983 200.442 229.833 200.458C229.683 200.475 229.539 200.524 229.41 200.601C228.394 201.306 227.179 201.666 225.943 201.629C224.981 201.561 224.057 201.223 223.277 200.655C223.209 200.599 223.126 200.563 223.038 200.553C222.95 200.542 222.86 200.556 222.78 200.594C222.7 200.632 222.633 200.692 222.585 200.767C222.538 200.842 222.513 200.929 222.513 201.018V204.631C222.513 204.737 222.534 204.843 222.575 204.941C222.616 205.039 222.676 205.129 222.752 205.204C222.827 205.279 222.917 205.339 223.015 205.379C223.114 205.42 223.219 205.44 223.326 205.44L237.237 205.384Z" fill="#C1D8ED"/>
<path d="M85.4345 184.324C86.0088 184.227 92.4868 183.121 92.4868 183.121L91.418 176.864C91.418 176.864 84.956 177.968 84.3835 178.064L85.4345 184.324Z" fill="#E98862"/>
<path d="M96.1828 190.325C96.2102 190.494 96.2026 190.666 96.1604 190.832C96.1182 190.997 96.0424 191.152 95.9377 191.287C95.8329 191.421 95.7015 191.533 95.5516 191.615C95.4017 191.697 95.2366 191.747 95.0665 191.762C94.8309 191.782 94.5941 191.735 94.3842 191.626C94.1743 191.517 94 191.35 93.8817 191.145L90.2208 184.267C90.1504 184.134 90.1097 183.987 90.1014 183.837C90.0931 183.686 90.1174 183.536 90.1727 183.395C90.7002 182.277 90.8549 181.02 90.614 179.807C90.3876 178.869 89.9021 178.014 89.213 177.338C89.1462 177.28 89.0973 177.204 89.0721 177.119C89.0469 177.034 89.0464 176.943 89.0707 176.858C89.095 176.773 89.1431 176.696 89.2094 176.637C89.2756 176.578 89.3573 176.539 89.4448 176.525L93.0079 175.928C93.113 175.911 93.2206 175.914 93.3244 175.938C93.4282 175.962 93.5263 176.006 93.613 176.068C93.6996 176.13 93.7732 176.209 93.8294 176.3C93.8856 176.39 93.9234 176.491 93.9406 176.596L96.1828 190.325Z" fill="#C1D8ED"/>
<path d="M65.3769 167.401C59.9925 167.622 54.003 167.737 48.5753 167.832C46.8779 167.864 45.2558 168.539 44.0361 169.72C42.8163 170.901 42.0896 172.5 42.0023 174.196C41.915 175.891 42.4737 177.557 43.5657 178.857C44.6577 180.157 46.2019 180.994 47.8871 181.201L88.5106 186.134L90.1657 174.128L49.7236 167.885L48.6258 181.262C54.077 181.616 59.9158 181.987 65.3776 182.212L65.3769 167.401Z" fill="#262626"/>
<path d="M55.1292 181.695C60.737 180.878 61.2953 180.729 61.4796 180.68L59.8323 174.549C59.8508 174.545 59.8746 174.538 59.904 174.532C59.4445 174.632 56.5936 175.067 54.2161 175.413L55.1292 181.695Z" fill="#E98862"/>
<path d="M48.1235 187.151C48.0646 187.311 48.0395 187.481 48.0495 187.652C48.0596 187.822 48.1046 187.989 48.1819 188.141C48.2591 188.293 48.3669 188.428 48.4985 188.536C48.6301 188.645 48.7828 188.725 48.9468 188.773C49.1743 188.838 49.4156 188.837 49.6425 188.769C49.8693 188.702 50.0722 188.571 50.2272 188.392L55.1271 182.334C55.2211 182.217 55.2886 182.08 55.3251 181.934C55.3616 181.788 55.3662 181.636 55.3387 181.488C55.0332 180.29 55.12 179.026 55.5865 177.881C55.9867 177.003 56.6256 176.256 57.4303 175.723C57.5069 175.679 57.5693 175.613 57.6101 175.535C57.6509 175.456 57.6685 175.367 57.6609 175.279C57.6532 175.191 57.6206 175.106 57.5668 175.036C57.513 174.965 57.4403 174.912 57.3571 174.881L53.9719 173.619C53.872 173.581 53.7657 173.564 53.6592 173.568C53.5527 173.572 53.448 173.597 53.3512 173.641C53.2543 173.686 53.1672 173.749 53.0948 173.827C53.0224 173.906 52.9662 173.997 52.9294 174.097L48.1235 187.151Z" fill="#C1D8ED"/>
<path d="M74.3969 181.123C81.1612 180.585 88.0242 180.371 94.8072 180.249L94.2181 168.036C81.5366 169.758 68.6815 171.391 55.9338 172.572L57.3387 184.611C70.0169 182.824 82.9004 181.453 95.6387 180.209C103.05 179.544 102.8 168.397 95.4271 168.017C88.5269 167.624 81.5535 167.136 74.6889 166.316L74.3969 181.123Z" fill="#262626"/>
<path d="M59.2003 165.547L58.3056 180.57L84.1457 180.267L82.1952 166.966L59.2003 165.547Z" fill="#262626"/>
<path d="M90.8636 163.554C91.3777 163.553 91.8839 163.428 92.3388 163.189C92.7937 162.949 93.1836 162.603 93.475 162.179C93.7664 161.756 93.9506 161.268 94.0117 160.758C94.0728 160.247 94.009 159.729 93.8258 159.249L87.5763 142.86L83.1685 144.541L80.5666 140.997L75.4521 144.753L88.3038 162.258C88.5988 162.66 88.9842 162.987 89.429 163.212C89.8737 163.437 90.3652 163.554 90.8636 163.554Z" fill="#367CFF"/>
<path d="M66.5095 136.826C66.5095 136.826 68.9403 135.782 68.9403 129.396L73.8263 128.899C73.8263 128.899 72.8191 134.541 75.106 136.546L66.5095 136.826Z" fill="#E98862"/>
<g opacity="0.15">
<path d="M74.2174 135.277L70.4694 131.892L73.6129 132.116C73.6159 133.198 73.8209 134.27 74.2174 135.277Z" fill="black"/>
</g>
<path d="M66.4113 126.713C66.5866 128.665 67.4873 130.573 69.134 131.334C70.9242 132.22 72.9041 132.655 74.9008 132.6C80.2048 132.6 80.145 120.535 77.8345 118.003C75.5241 115.471 68.0616 116.342 66.8496 120.161C66.2227 122.136 66.2441 124.855 66.4113 126.713Z" fill="#E98862"/>
<path d="M74.1053 125.85C73.8634 125.85 73.6673 125.654 73.6673 125.412C73.6673 125.17 73.8634 124.974 74.1053 124.974C74.3471 124.974 74.5432 125.17 74.5432 125.412C74.5432 125.654 74.3471 125.85 74.1053 125.85Z" fill="#0F1011"/>
<path d="M77.5721 125.85C77.3303 125.85 77.1342 125.654 77.1342 125.412C77.1342 125.17 77.3303 124.974 77.5721 124.974C77.814 124.974 78.0101 125.17 78.0101 125.412C78.0101 125.654 77.814 125.85 77.5721 125.85Z" fill="#0F1011"/>
<path d="M78.4218 124.545C78.4747 124.544 78.5256 124.524 78.5638 124.487C78.602 124.451 78.6247 124.401 78.6272 124.348C78.6296 124.295 78.6116 124.244 78.5769 124.204C78.5423 124.164 78.4935 124.139 78.4408 124.134L77.2856 124.025C77.2587 124.022 77.2316 124.025 77.2058 124.033C77.18 124.041 77.156 124.054 77.1352 124.071C77.1144 124.088 77.0972 124.109 77.0846 124.133C77.072 124.157 77.0642 124.183 77.0616 124.21C77.0591 124.237 77.0619 124.264 77.0699 124.29C77.0779 124.316 77.0908 124.34 77.108 124.361C77.1253 124.381 77.1464 124.399 77.1703 124.411C77.1942 124.424 77.2203 124.432 77.2472 124.434L78.4022 124.544L78.4218 124.545Z" fill="#0F1011"/>
<path d="M73.2456 124.545C73.2563 124.545 73.2669 124.544 73.2774 124.542L74.4398 124.361C74.4673 124.357 74.4938 124.349 74.5178 124.335C74.5418 124.321 74.5627 124.303 74.5795 124.281C74.5962 124.259 74.6083 124.234 74.615 124.207C74.6218 124.18 74.6231 124.152 74.6189 124.125C74.6146 124.097 74.6049 124.071 74.5903 124.048C74.5758 124.024 74.5566 124.004 74.534 123.988C74.5114 123.972 74.4858 123.961 74.4588 123.955C74.4317 123.949 74.4038 123.949 74.3767 123.954L73.2142 124.136C73.163 124.143 73.1167 124.17 73.0845 124.211C73.0523 124.251 73.0365 124.303 73.0403 124.354C73.0442 124.406 73.0673 124.454 73.1051 124.489C73.1429 124.525 73.1926 124.545 73.2444 124.545L73.2456 124.545Z" fill="#0F1011"/>
<path d="M74.0255 128.866C74.0255 128.866 75.6226 129.168 76.7845 128.866C76.7845 128.866 76.6886 129.927 75.405 129.927C74.1213 129.927 74.0255 128.866 74.0255 128.866Z" fill="white"/>
<path d="M70.3651 122.017C70.1046 130.835 68.8251 131.643 68.8251 131.643C68.8251 131.643 64.654 128.645 64.514 123.325C64.3822 118.338 68.2641 115.718 70.7708 115.369C80.2943 114.045 80.6286 122.644 80.6286 122.644C75.849 123.464 69.3386 122.11 69.3386 122.11" fill="#0F1011"/>
<path d="M71.747 126.294C71.7408 126.782 71.5425 127.248 71.1949 127.592C70.8474 127.935 70.3787 128.127 69.8904 128.127C69.4021 128.127 68.9334 127.935 68.5859 127.592C68.2384 127.248 68.04 126.782 68.0338 126.294C68.0296 126.049 68.0748 125.806 68.1666 125.579C68.2584 125.351 68.395 125.145 68.5682 124.972C68.7415 124.799 68.9478 124.662 69.1749 124.57C69.402 124.478 69.6453 124.433 69.8903 124.437C71.2126 124.502 71.747 125.268 71.747 126.294Z" fill="#E98862"/>
<path d="M65.8083 123.325C63.4702 123.325 61.5749 121.43 61.5749 119.091C61.5749 116.753 63.4702 114.858 65.8083 114.858C68.1463 114.858 70.0417 116.753 70.0417 119.091C70.0417 121.43 68.1463 123.325 65.8083 123.325Z" fill="#0F1011"/>
<g opacity="0.15">
<path d="M75.8566 127.992C75.8675 127.992 75.8785 127.991 75.8892 127.989L76.9664 127.752C76.9874 127.748 77.0071 127.739 77.0242 127.726C77.0414 127.713 77.0557 127.697 77.0661 127.678C77.0765 127.659 77.0828 127.639 77.0846 127.617C77.0864 127.596 77.0836 127.575 77.0765 127.554L76.5118 125.959C76.4975 125.923 76.4696 125.893 76.4339 125.877C76.3982 125.86 76.3576 125.859 76.3206 125.872C76.2837 125.885 76.2532 125.912 76.2358 125.947C76.2183 125.982 76.2152 126.023 76.2271 126.06L76.7346 127.494L75.8242 127.694C75.7879 127.702 75.7559 127.723 75.7343 127.753C75.7126 127.783 75.7029 127.821 75.7069 127.858C75.7109 127.894 75.7283 127.929 75.756 127.954C75.7836 127.978 75.8194 127.992 75.8566 127.992Z" fill="black"/>
</g>
<path d="M52.586 160.148L57.3559 141.213C57.5985 139.992 58.2165 138.877 59.1235 138.024C60.5049 136.643 62.8897 135.751 65.7974 135.748C66.015 137.444 76.3099 137.45 76.3885 135.787C76.7815 135.793 77.0867 135.799 77.2772 135.808C87.3061 136.241 82.8992 144.934 82.8024 153.318C82.6846 163.13 85.3354 164.979 84.0293 167.978C82.7631 170.889 57.8782 172.098 57.5457 166.977C57.4675 165.773 57.8108 164.625 58.2742 163.336L57.3877 163.831C56.8259 164.144 56.1844 164.287 55.5425 164.241C54.9006 164.194 54.2864 163.961 53.7756 163.569C53.2649 163.177 52.8801 162.645 52.6687 162.037C52.4573 161.429 52.4285 160.772 52.586 160.148Z" fill="#367CFF"/>
<path d="M76.3891 135.787C76.3105 137.45 75.4068 139.895 72.6169 140.079C68.8991 140.324 66.0156 137.444 65.798 135.748H65.8071C69.4674 135.748 74.2546 135.754 76.3891 135.787Z" fill="#E98862"/>
<path d="M80.0609 141.451C79.9038 141.663 80.0368 141.965 80.8861 142.86C81.4151 143.419 82.0616 144.196 82.5395 144.782L86.8648 143.132C86.5565 141.856 86.0635 140.097 85.6041 139.698C84.8665 139.057 82.1372 140.29 82.1372 140.29C82.1372 140.29 81.8409 139.384 81.4541 138.447C81.0097 137.368 80.4448 136.246 80.0758 136.431C79.7191 136.609 79.9824 137.724 80.3901 138.921C80.913 140.463 81.6777 142.137 81.6777 142.137C81.6777 142.137 80.4478 140.933 80.0609 141.451Z" fill="#E98862"/>
<path d="M79.6193 150.954L75.9557 150.37C75.8117 150.347 75.6742 150.294 75.5522 150.214C75.4302 150.134 75.3264 150.029 75.2476 149.907C75.1688 149.784 75.1168 149.646 75.0949 149.502C75.0731 149.358 75.0819 149.211 75.1208 149.07L77.4262 140.797C77.4945 140.552 77.6505 140.34 77.8646 140.203C78.0787 140.065 78.3359 140.012 78.5871 140.052L82.2511 140.636C82.3951 140.659 82.5326 140.712 82.6546 140.792C82.7766 140.872 82.8804 140.977 82.9592 141.099C83.038 141.222 83.09 141.36 83.1118 141.504C83.1337 141.648 83.1249 141.795 83.0859 141.936L80.7806 150.209C80.7124 150.454 80.5563 150.666 80.3421 150.803C80.1279 150.941 79.8706 150.994 79.6193 150.954Z" fill="#C1D8ED"/>
<path d="M73.719 148.786L75.8798 151.718C75.8798 151.718 81.688 150.554 82.2327 146.079C82.2955 145.564 82.2411 144.139 81.6031 144.33C79.9406 144.828 77.872 147.379 76.4212 147.718C76.7536 147.125 77.1559 146.288 76.8957 146.135C76.2105 145.733 74.3685 148.162 73.719 148.786Z" fill="#E98862"/>
<path d="M139.867 177.597H194.421L200.542 182.735V143.569H139.867V177.597Z" fill="#C1D8ED"/>
<path d="M123.243 135.269L129.134 130.803H183.918V94.6899H123.243V135.269Z" fill="#DEE8F5"/>
<path d="M200.542 87.2843L193.964 82.4481H150.742V51.4443H200.542V87.2843Z" fill="#C1D8ED"/>
<path d="M261.61 205.44H310.173C313.735 202.597 313.981 196.191 310.289 193.332C307.442 191.127 303.14 191.717 300.465 194.01C300.965 192.303 300.975 190.49 300.494 188.777C299.624 185.694 297.69 182.56 294.738 181.313C287.204 178.134 281.851 184.795 280.778 188.519C278.85 185.682 274.535 184.183 271.826 186.093C268.396 188.511 268.551 192.324 271.288 195.06C267.641 194.381 264.895 194.905 262.366 197.62C260.44 199.686 260.145 203.208 261.61 205.44Z" fill="#DEE8F5"/>
<path d="M292.156 161.762L300.952 204.657C301.008 204.88 301.137 205.079 301.319 205.221C301.501 205.363 301.726 205.44 301.957 205.44C302.114 205.44 302.27 205.404 302.411 205.335C302.553 205.266 302.677 205.166 302.774 205.041C302.871 204.917 302.938 204.772 302.971 204.618C303.003 204.464 303 204.305 302.962 204.152L294.042 160.761L292.156 161.762Z" fill="#C1D8ED"/>
<path d="M271.493 161.693L262.697 204.588C262.641 204.812 262.512 205.011 262.33 205.153C262.147 205.295 261.923 205.372 261.692 205.372C261.535 205.372 261.379 205.336 261.238 205.267C261.096 205.198 260.972 205.097 260.875 204.973C260.778 204.849 260.711 204.704 260.678 204.55C260.646 204.396 260.649 204.236 260.687 204.083L269.607 160.693L271.493 161.693Z" fill="#C1D8ED"/>
<path d="M262.25 157.566H301.399C302.389 157.566 303.192 158.369 303.192 159.359V163.304C303.192 164.294 302.389 165.096 301.399 165.096H262.25C261.26 165.096 260.457 164.294 260.457 163.304V159.359C260.457 158.369 261.26 157.566 262.25 157.566Z" fill="#DEE8F5"/>
<path d="M229.838 79.3034C229.759 80.9659 228.856 83.4111 226.066 83.5955C222.348 83.8403 219.464 80.9598 219.247 79.2642H219.256C222.916 79.2642 227.705 79.2702 229.838 79.3034Z" fill="#E98862"/>
<path d="M273.88 139.034C274.98 138.674 276.11 139.079 277.192 139.9C275.768 136.303 275.18 133.058 277.615 132.911C279.318 132.809 280.622 134.116 281.614 135.973C281.962 132.707 282.862 130.271 284.876 131.078C287.088 131.965 287.424 135.004 287.089 138.184C288.064 136.56 289.113 135.654 290.065 136.606C292.908 139.449 285.93 147.461 285.93 147.461H284.197L283.208 148.535C283.408 148.958 283.517 149.211 283.517 149.211L282.261 151.767C282.261 151.767 269.31 140.529 273.88 139.034Z" fill="#8DDBE0"/>
<path d="M276.986 157.493H286.795L288.436 146.043H275.344L276.986 157.493Z" fill="#C1D8ED"/>
</svg>
